<?xml version="1.0" encoding="UTF-8"?>
<svg id="Layer_1" data-name="Layer 1" xmlns="http://www.w3.org/2000/svg" viewBox="0 0 325.68 479.34">
  <defs>
    <style>
      .cls-1 {
        fill: #f58220;
      }
    </style>
  </defs>
  <path class="cls-1" d="M163.05,320.08c-4.75,0-9.5-.13-14.25.03-46.78,1.56-93.57,3.14-140.35,4.82-2.83.1-3.55-.68-3.64-3.44C3.28,274.26,1.64,227.04.03,179.81c0-.05,0-.1,0-.15-.33-9.33,2.94-18.44,9.3-25.27C56.74,103.48,104.23,52.65,151.66,1.76c2.04-2.19,3.21-2.46,5.45-.11,31.04,32.54,40.19,70.54,28,113.57-4.67,16.48-13.55,30.81-25.33,43.35-25.12,26.75-50.12,53.62-75.16,80.45-2.91,3.12-2.9,3.28.39,6.35,25.27,23.61,50.56,47.21,75.84,70.81.87.81,1.73,1.62,2.6,2.43-.13.49-.26.98-.39,1.46Z"/>
  <path class="cls-1" d="M161.09,159.74c2.01-.24,2.94-.41,3.88-.44,50.56-1.74,101.12-3.44,151.68-5.27,3-.11,3.7.71,3.79,3.63,1.65,50.92,3.41,101.83,5.23,152.74.09,2.4-.79,4.73-2.42,6.48-49.89,53.36-99.74,106.77-149.59,160.17-3.01,3.23-2.87,3.02-6.35-.5-13.36-13.51-23.57-30-28.29-48.4-7.58-29.53-4.71-57.47,9.11-83.54,4.99-9.41,11.47-17.95,18.76-25.71,24.66-26.29,49.19-52.7,73.86-78.98,2.32-2.47,2.19-3.9-.26-6.17-24.95-23.14-49.8-46.38-74.67-69.59-1.34-1.25-2.69-2.51-4.72-4.41Z"/>
</svg>