<svg width="1920" height="1920" viewBox="0 0 1920 1920" fill="none" xmlns="http://www.w3.org/2000/svg">
<rect width="1920" height="1920" rx="960" fill="white"/>
<path fill-rule="evenodd" clip-rule="evenodd" d="M929.907 411.538C910.822 412.919 883.327 417.281 863.444 422.078C845.006 426.528 816.695 436.031 802.499 442.537C799.442 443.939 796.732 445.085 796.476 445.085C794.897 445.085 760.492 463.115 753.493 467.612C733.149 480.68 722.038 488.469 709.745 498.278C663.061 535.527 626.494 580.565 600.446 632.896C585.889 662.139 577.684 684.162 569.828 715.074C558.019 761.541 554.363 812.837 560.124 851.248C562.388 866.341 565.54 882.353 567.958 891.044C574.666 915.147 576.197 919.615 589.621 954.225C597.973 975.755 623.012 1025.79 641.769 1058.43C645.14 1064.3 649.252 1071.5 650.907 1074.43C658.825 1088.47 679.335 1122.08 690.714 1139.66C693.05 1143.27 696.962 1149.35 699.407 1153.17C705.809 1163.16 721.745 1187.44 724.744 1191.77C726.15 1193.8 735.279 1207.09 745.031 1221.31C754.782 1235.52 764.665 1249.74 766.994 1252.9C773.614 1261.88 781.379 1272.6 788.39 1282.44C791.929 1287.4 797.954 1295.71 801.78 1300.9C805.606 1306.09 810.245 1312.4 812.09 1314.93C829.112 1338.26 834.43 1345.21 835.259 1345.21C835.868 1345.21 836.409 1343 836.719 1339.26C836.99 1335.99 838.127 1321.86 839.244 1307.87C840.362 1293.88 841.825 1276.9 842.495 1270.13C843.915 1255.78 847.439 1215.97 848.705 1199.97C849.187 1193.88 850.301 1181.14 851.18 1171.67C852.06 1162.19 853.513 1145.94 854.41 1135.56C855.307 1125.18 856.276 1114.27 856.564 1111.31L857.087 1105.93L846.522 1101.55C789.234 1077.79 738.511 1035.33 704.314 982.519C694.04 966.653 693.146 965.159 688.85 956.686C661.46 902.671 650.423 847.387 655.432 789.298C657.058 770.455 658.026 763.263 660.45 752.043C663.687 737.057 666.971 725.464 671.745 712.168C675.7 701.153 684.64 679.835 686.196 677.706C686.526 677.254 688.23 674.116 689.984 670.731C722.592 607.788 783.484 553.937 851.136 528.216C864.881 522.99 864.356 523.16 879.444 518.994C924.866 506.452 976.717 504.943 1023.86 514.792C1033.13 516.731 1054.53 522.557 1059.96 524.625C1077.18 531.179 1082.18 533.195 1088.62 536.175C1115.47 548.607 1144.89 568.461 1168.25 589.909C1175.81 596.848 1193.07 615.447 1198.71 622.733C1220.37 650.717 1231.75 670.107 1243.72 699.45C1257.75 733.845 1264.9 768.483 1266.06 807.76C1267.29 849.394 1259.79 890.335 1243.6 930.287C1233.34 955.613 1227.64 965.882 1206.43 997.249C1200.26 1006.36 1182.48 1026.92 1172.67 1036.28C1152.79 1055.24 1131.68 1071.17 1108.78 1084.49C1099.77 1089.73 1084.78 1097.36 1078.83 1099.74C1076.58 1100.64 1072.19 1102.54 1069.09 1103.96L1063.45 1106.54L1063.98 1110.39C1064.44 1113.74 1066.44 1137.27 1069.43 1174.54C1069.92 1180.63 1071.2 1195.03 1072.27 1206.54C1073.35 1218.05 1074.63 1232.45 1075.12 1238.54C1076.16 1251.48 1079.44 1287.71 1081.68 1311.16C1082.54 1320.18 1083.5 1331.54 1083.81 1336.4C1084.11 1341.26 1084.67 1345.42 1085.05 1345.66C1085.43 1345.89 1088.94 1341.73 1092.85 1336.41C1096.76 1331.1 1101.59 1324.53 1103.58 1321.82C1105.58 1319.11 1108.94 1314.5 1111.05 1311.57C1113.16 1308.63 1118.43 1301.43 1122.76 1295.57C1127.09 1289.7 1132.18 1282.68 1134.06 1279.98C1135.94 1277.27 1139.8 1271.85 1142.62 1267.95C1147.32 1261.44 1156.76 1248.22 1164.78 1236.9C1174.57 1223.08 1200.59 1184.51 1214.33 1163.46C1232.65 1135.39 1237.38 1128.1 1239.57 1124.48C1240.81 1122.45 1242.85 1119.13 1244.11 1117.1C1250.1 1107.46 1262.74 1086.59 1265.49 1081.82C1268.78 1076.1 1280.51 1055.54 1285.86 1046.12C1298.49 1023.87 1317.9 984.789 1326.65 963.992C1352.53 902.512 1362.55 860.081 1362.56 811.862C1362.56 794.555 1361.04 772.827 1358.59 755.246C1353.96 722.019 1342.01 680.494 1328.77 651.633C1327.37 648.576 1326.22 645.858 1326.22 645.595C1326.22 644.641 1313.88 620.606 1309.35 612.738C1292.91 584.174 1271.74 556.082 1249.77 533.658C1226.78 510.2 1209.3 495.664 1183.04 478.167C1177.17 474.258 1171.32 470.343 1170.03 469.469C1162.69 464.497 1126.08 445.085 1124.03 445.085C1123.79 445.085 1121.09 443.939 1118.03 442.537C1103.73 435.98 1075.72 426.593 1056.68 421.97C1046.18 419.421 1021.43 414.888 1010.73 413.555C988.089 410.732 953.086 409.859 929.907 411.538ZM883.137 685.944C861.377 688.931 842.298 694.422 822.828 703.302C778.061 723.719 739.309 763.48 712.296 816.714C709.681 821.866 707.543 826.521 707.543 827.061C707.543 827.64 711.498 828.961 717.184 830.281C722.487 831.513 727.293 832.663 727.864 832.837C728.435 833.012 729.912 831.967 731.146 830.516C746.992 811.894 762.104 799.49 782.399 788.45C805.178 776.06 827.918 770.227 850.275 771.04C863.939 771.537 871.897 773.79 879.481 779.308C896.105 791.405 901.428 806.97 903.312 848.991L903.818 860.274H959.824H1015.83L1016.83 850.327C1018.48 833.805 1021.13 825.804 1028.6 814.734C1035.5 804.514 1047.34 795.679 1059.14 791.939C1063.96 790.411 1066.73 790.122 1076.37 790.143C1089.56 790.172 1093.7 791.273 1102.72 797.154C1108.83 801.132 1112.23 804.713 1116.54 811.694L1119.68 816.786H1151.61C1187.04 816.786 1186.34 816.885 1190.59 811.312L1192.89 808.299L1193.11 751.836C1193.36 688.653 1193.62 691.627 1187.49 687.193L1184.03 684.68H1151.85H1119.67L1116.48 690.188C1107.78 705.234 1094.47 712.476 1075.4 712.549C1056.38 712.622 1039.95 704.149 1030.52 689.395L1027.5 684.68L959.216 684.777C908.065 684.849 888.976 685.142 883.137 685.944ZM916.909 902.326C915.93 912.819 914.749 926.388 914.287 932.481C913.824 938.573 913.099 947.619 912.677 952.583C912.254 957.548 911.153 971.394 910.229 983.353C909.306 995.313 907.465 1017.47 906.138 1032.59C904.81 1047.7 903.142 1067.46 902.431 1076.48C901.719 1085.51 900.772 1096.96 900.326 1101.92C897.993 1127.9 895.336 1159.33 893.805 1179.05C892.858 1191.23 891.188 1211.17 890.093 1223.36C888.999 1235.54 887.724 1250.5 887.258 1256.59C886.213 1270.3 884.336 1292.19 882.722 1309.51C882.049 1316.74 880.762 1332.61 879.863 1344.8C878.963 1356.98 877.867 1371.57 877.427 1377.21C876.987 1382.85 876.408 1390.42 876.142 1394.03L875.656 1400.59L880.011 1406.08C882.407 1409.1 887.558 1415.75 891.458 1420.85C895.358 1425.96 904.376 1437.7 911.499 1446.95C918.622 1456.2 926.57 1466.54 929.161 1469.93C934.649 1477.1 946.953 1493.07 954.355 1502.64C957.195 1506.31 959.862 1509.31 960.281 1509.31C960.699 1509.31 962.706 1507.19 964.742 1504.6C969.031 1499.13 985.388 1477.86 991.662 1469.6C994.026 1466.49 996.915 1462.8 998.083 1461.4C999.249 1460 1004.39 1453.31 1009.52 1446.54C1014.64 1439.77 1024.72 1426.55 1031.91 1417.15L1045 1400.06L1043.27 1381.87C1042.32 1371.86 1041.15 1358.5 1040.68 1352.18C1038.45 1322.33 1035.55 1286.61 1034.12 1271.36C1033.25 1262.11 1031.78 1244.75 1030.85 1232.79C1029.36 1213.75 1028.06 1198.05 1025.04 1162.64C1024.62 1157.68 1022.99 1137.55 1021.42 1117.92C1019.85 1098.29 1017.63 1072.44 1016.49 1060.48C1015.36 1048.52 1013.13 1022.68 1011.53 1003.05C1009.94 983.415 1007.93 959.23 1007.06 949.301C1006.19 939.373 1004.69 920.729 1003.72 907.871C1002.76 895.013 1001.79 884.213 1001.58 883.871C1001.37 883.528 982.632 883.249 959.943 883.249H918.69L916.909 902.326Z" fill="#F97316"/>
</svg>
