<svg width="5000" height="1183" viewBox="1110 377 5000 1183" fill="none" xmlns="http://www.w3.org/2000/svg">
<rect width="6393" height="1920" fill="#FA5B0D"/>
<path d="M1587.75 1329.99C1540.47 1329.99 1496.85 1321.33 1456.9 1304.02C1417.62 1286.04 1385.32 1260.74 1360.02 1228.11L1449.91 1120.24C1469.22 1145.54 1489.53 1164.85 1510.84 1178.17C1532.15 1190.82 1555.12 1197.15 1579.76 1197.15C1645.68 1197.15 1678.64 1158.52 1678.64 1081.28V748.683H1432.93V618.839H1839.44V1072.29C1839.44 1158.86 1818.14 1223.45 1775.52 1266.06C1732.91 1308.68 1670.31 1329.99 1587.75 1329.99Z" fill="white"/>
<path d="M2338.86 1329.99C2283.59 1329.99 2232.32 1321 2185.04 1303.02C2138.43 1285.04 2097.82 1259.74 2063.19 1227.11C2029.23 1194.48 2002.6 1156.19 1983.29 1112.25C1964.64 1068.3 1955.32 1020.36 1955.32 968.42C1955.32 916.482 1964.64 868.539 1983.29 824.592C2002.6 780.645 2029.56 742.358 2064.19 709.73C2098.81 677.103 2139.43 651.8 2186.04 633.821C2232.65 615.843 2283.26 606.854 2337.86 606.854C2393.13 606.854 2443.73 615.843 2489.68 633.821C2536.29 651.8 2576.57 677.103 2610.53 709.73C2645.16 742.358 2672.13 780.645 2691.44 824.592C2710.75 867.874 2720.4 915.816 2720.4 968.42C2720.4 1020.36 2710.75 1068.63 2691.44 1113.25C2672.13 1157.19 2645.16 1195.48 2610.53 1228.11C2576.57 1260.07 2536.29 1285.04 2489.68 1303.02C2443.73 1321 2393.46 1329.99 2338.86 1329.99ZM2337.86 1192.15C2369.16 1192.15 2397.79 1186.82 2423.76 1176.17C2450.39 1165.52 2473.7 1150.2 2493.67 1130.23C2513.65 1110.25 2528.97 1086.61 2539.62 1059.31C2550.94 1032.01 2556.6 1001.71 2556.6 968.42C2556.6 935.126 2550.94 904.829 2539.62 877.529C2528.97 850.228 2513.65 826.59 2493.67 806.614C2474.36 786.638 2451.39 771.323 2424.76 760.669C2398.12 750.015 2369.16 744.688 2337.86 744.688C2306.57 744.688 2277.6 750.015 2250.97 760.669C2225 771.323 2202.02 786.638 2182.05 806.614C2162.07 826.59 2146.42 850.228 2135.1 877.529C2124.45 904.829 2119.12 935.126 2119.12 968.42C2119.12 1001.05 2124.45 1031.34 2135.1 1059.31C2146.42 1086.61 2161.74 1110.25 2181.05 1130.23C2201.03 1150.2 2224.33 1165.52 2250.97 1176.17C2277.6 1186.82 2306.57 1192.15 2337.86 1192.15Z" fill="white"/>
<path d="M2842.01 1318V618.839H3183.6C3271.49 618.839 3337.41 635.486 3381.36 668.779C3425.97 702.073 3448.28 746.02 3448.28 800.621C3448.28 837.244 3439.29 869.205 3421.31 896.506C3403.33 923.141 3378.7 943.782 3347.4 958.432C3316.1 973.081 3280.15 980.405 3239.53 980.405L3258.51 939.454C3302.45 939.454 3341.41 946.779 3375.37 961.428C3409.33 975.411 3435.63 996.386 3454.27 1024.35C3473.58 1052.32 3483.24 1086.61 3483.24 1127.23C3483.24 1187.16 3459.6 1234.1 3412.32 1268.06C3365.04 1301.35 3295.46 1318 3203.57 1318H2842.01ZM3002.81 1196.15H3191.59C3233.54 1196.15 3265.16 1189.49 3286.47 1176.17C3308.45 1162.19 3319.43 1140.21 3319.43 1110.25C3319.43 1080.95 3308.45 1059.31 3286.47 1045.33C3265.16 1030.68 3233.54 1023.35 3191.59 1023.35H2990.83V905.495H3163.62C3202.91 905.495 3232.87 898.836 3253.51 885.519C3274.82 871.536 3285.47 850.561 3285.47 822.595C3285.47 795.294 3274.82 774.985 3253.51 761.668C3232.87 747.684 3202.91 740.693 3163.62 740.693H3002.81V1196.15Z" fill="white"/>
<path d="M3605.74 1318V618.839H3923.36C3999.27 618.839 4066.19 633.488 4124.12 662.786C4182.05 691.419 4227.33 731.704 4259.95 783.641C4292.58 835.579 4308.89 897.172 4308.89 968.42C4308.89 1039 4292.58 1100.59 4259.95 1153.2C4227.33 1205.14 4182.05 1245.75 4124.12 1275.05C4066.19 1303.68 3999.27 1318 3923.36 1318H3605.74ZM3767.54 1185.16H3915.37C3961.98 1185.16 4002.26 1176.5 4036.22 1159.19C4070.85 1141.21 4097.48 1115.91 4116.13 1083.28C4135.44 1050.65 4145.09 1012.37 4145.09 968.42C4145.09 923.806 4135.44 885.519 4116.13 853.557C4097.48 820.93 4070.85 795.96 4036.22 778.647C4002.26 760.669 3961.98 751.68 3915.37 751.68H3767.54V1185.16Z" fill="white"/>
<path d="M4741.55 1329.99C4642.33 1329.99 4564.76 1302.35 4508.83 1247.09C4452.89 1191.82 4424.93 1112.91 4424.93 1010.37V618.839H4586.73V1004.38C4586.73 1070.96 4600.38 1118.91 4627.68 1148.2C4654.98 1177.5 4693.27 1192.15 4742.55 1192.15C4791.82 1192.15 4830.11 1177.5 4857.41 1148.2C4884.71 1118.91 4898.36 1070.96 4898.36 1004.38V618.839H5058.17V1010.37C5058.17 1112.91 5030.2 1191.82 4974.27 1247.09C4918.33 1302.35 4840.76 1329.99 4741.55 1329.99Z" fill="white"/>
<path d="M5218.06 1318V618.839H5351.9L5764.4 1122.23H5699.48V618.839H5859.29V1318H5726.45L5312.95 814.604H5377.87V1318H5218.06Z" fill="white"/>
</svg>
