<?xml version="1.0" encoding="UTF-8"?>
<svg xmlns="http://www.w3.org/2000/svg" viewBox="0 0 864.07 205.34">
  <g>
    <path fill="#123c73" d="M202.29,168.65h-43.71v-22.88h31.68c4.2,0,7.79-1.49,10.78-4.48,2.98-2.98,4.47-6.62,4.47-10.92v-64.39h27.28v72.01c0,8.51-22.1,30.66-30.51,30.66Z"/>
    <path fill="#123c73" d="M341.19,168.65h-69.96c-5.38,0-10-1.93-13.86-5.79-3.87-3.86-5.79-8.48-5.79-13.86v-63.36c0-5.38,1.93-10,5.79-13.86,3.86-3.86,8.48-5.79,13.86-5.79h69.96c5.38,0,10,1.93,13.86,5.79,3.86,3.86,5.79,8.48,5.79,13.86v63.36c0,5.38-1.93,10-5.79,13.86-3.86,3.86-8.48,5.79-13.86,5.79ZM329.16,145.77c1.17,0,2.2-.44,3.08-1.32s1.32-1.91,1.32-3.08v-48.11c0-1.17-.44-2.2-1.32-3.08-.88-.88-1.91-1.32-3.08-1.32h-45.91c-1.17,0-2.2.44-3.08,1.32-.88.88-1.32,1.9-1.32,3.08v48.11c0,1.17.44,2.2,1.32,3.08.88.88,1.91,1.32,3.08,1.32h45.91Z"/>
    <path fill="#123c73" d="M461.31,168.65h-80.82v-102.67h78.62c5.48,0,10.12,1.93,13.93,5.79,3.81,3.86,5.72,8.48,5.72,13.86v13.64c0,7.73-3.62,13.59-10.85,17.6,8.7,3.81,13.05,9.98,13.05,18.48v13.64c0,5.38-1.91,10-5.72,13.86-3.81,3.86-8.46,5.79-13.93,5.79ZM447.08,105.87c1.27,0,2.32-.44,3.15-1.32.83-.88,1.25-1.91,1.25-3.08v-8.22c0-1.17-.42-2.2-1.25-3.08-.83-.88-1.89-1.32-3.15-1.32h-39.31v17.01h39.31ZM449.28,145.77c1.17,0,2.2-.44,3.08-1.32s1.32-1.91,1.32-3.08v-8.21c0-1.17-.44-2.2-1.32-3.08-.88-.88-1.91-1.32-3.08-1.32h-41.51v17.02h41.51Z"/>
    <path fill="#123c73" d="M715.05,168.65h-69.96c-5.38,0-10-1.93-13.86-5.79-3.87-3.86-5.79-8.48-5.79-13.86v-83.02h27.28v75.39c0,1.17.44,2.2,1.32,3.08.88.88,1.91,1.32,3.08,1.32h45.9c1.17,0,2.2-.44,3.08-1.32.88-.88,1.32-1.91,1.32-3.08v-75.39h27.28v83.02c0,5.38-1.93,10-5.79,13.86-3.86,3.86-8.48,5.79-13.86,5.79Z"/>
    <path fill="#123c73" d="M864.07,168.65h-27.28l-54.71-63.8v63.8h-27.28v-102.67h27.28l54.71,63.8v-63.8h27.28v102.67Z"/>
    <path fill="#123c73" d="M598.3,74.93c-5.96-5.96-13.15-8.95-21.56-8.95h-48.53c-9.7,9.68-19.38,19.36-29.06,29.05v73.62h77.59c8.4,0,15.59-2.98,21.56-8.95,5.96-5.96,8.95-13.2,8.95-21.71v-41.36c0-8.51-2.98-15.74-8.95-21.71ZM579.97,130.37c0,4.3-1.49,7.94-4.47,10.92-2.98,2.98-6.58,4.48-10.78,4.48h-38.29v-56.91h38.29c4.2,0,7.79,1.49,10.78,4.47,2.98,2.98,4.47,6.63,4.47,10.93v26.11Z"/>
  </g>
  <g>
    <path fill="#f58220" d="M69.85,137.12c-2.03,0-4.07-.06-6.1.01-20.04.67-40.08,1.34-60.12,2.06-1.21.04-1.52-.29-1.56-1.47C1.4,117.49.7,97.26.01,77.03c0-.02,0-.04,0-.07-.14-4,1.26-7.9,3.99-10.83C24.31,44.33,44.65,22.55,64.97.75c.87-.94,1.37-1.05,2.34-.05,13.3,13.94,17.22,30.22,12,48.65-2,7.06-5.81,13.2-10.85,18.57-10.76,11.46-21.47,22.97-32.2,34.46-1.25,1.33-1.24,1.41.17,2.72,10.83,10.11,21.66,20.22,32.49,30.33.37.35.74.69,1.11,1.04-.06.21-.11.42-.17.63Z"/>
    <path fill="#f58220" d="M69.01,68.43c.86-.1,1.26-.18,1.66-.19,21.66-.75,43.32-1.48,64.98-2.26,1.29-.05,1.58.3,1.62,1.55.71,21.81,1.46,43.62,2.24,65.43.04,1.03-.34,2.03-1.04,2.78-21.37,22.86-42.73,45.74-64.08,68.62-1.29,1.38-1.23,1.29-2.72-.21-5.72-5.79-10.1-12.85-12.12-20.73-3.25-12.65-2.02-24.62,3.9-35.79,2.14-4.03,4.91-7.69,8.04-11.02,10.56-11.26,21.07-22.58,31.64-33.83.99-1.06.94-1.67-.11-2.64-10.69-9.91-21.33-19.87-31.99-29.81-.58-.54-1.15-1.08-2.02-1.89Z"/>
  </g>
</svg>
