<svg xmlns="http://www.w3.org/2000/svg" viewBox="0 0 203.302 29.5866">
  <!-- JOBDUN wordmark only. Mark-free lockup half; pair with
       LogoVariant.mark when the two must animate independently. -->
  <path d="M12.596 29.5865H0V22.9932H9.12926C10.3396 22.9932 11.3741 22.5638 12.2357 21.7022C13.0945 20.8434 13.5239 19.7945 13.5239 18.5553V0H21.3852V20.7512C21.3852 23.2035 15.0166 29.5865 12.5931 29.5865H12.596Z" fill="#123C73"/>
  <path d="M52.623 29.5866H32.4625C30.9122 29.5866 29.5808 29.0304 28.4685 27.9181C27.3532 26.8057 26.7999 25.4744 26.7999 23.924V5.66551C26.7999 4.11515 27.3561 2.7838 28.4685 1.67146C29.5808 0.559121 30.9122 0.0029504 32.4625 0.0029504H52.623C54.1733 0.0029504 55.5047 0.559121 56.617 1.67146C57.7293 2.7838 58.2855 4.11515 58.2855 5.66551V23.924C58.2855 25.4744 57.7293 26.8057 56.617 27.9181C55.5047 29.0304 54.1733 29.5866 52.623 29.5866ZM49.1563 22.9932C49.4934 22.9932 49.7902 22.8664 50.0438 22.6129C50.2974 22.3593 50.4242 22.0624 50.4242 21.7253V7.86138C50.4242 7.52422 50.2974 7.2274 50.0438 6.97381C49.7902 6.72022 49.4934 6.59342 49.1563 6.59342H35.9263C35.5892 6.59342 35.2924 6.72022 35.0388 6.97381C34.7852 7.2274 34.6584 7.52134 34.6584 7.86138V21.7253C34.6584 22.0624 34.7852 22.3593 35.0388 22.6129C35.2924 22.8664 35.5892 22.9932 35.9263 22.9932H49.1563Z" fill="#123C73"/>
  <path d="M87.2379 29.5865H63.9479V1.06923e-05H86.6039C88.1831 1.06923e-05 89.5202 0.556179 90.6182 1.66852C91.7161 2.78086 92.2665 4.11221 92.2665 5.66257V9.59322C92.2665 11.8208 91.2233 13.5095 89.1398 14.665C91.6469 15.763 92.9005 17.541 92.9005 19.9904V23.9211C92.9005 25.4715 92.3501 26.8028 91.2521 27.9151C90.1542 29.0275 88.8142 29.5837 87.2379 29.5837V29.5865ZM83.1372 11.4952C83.5032 11.4952 83.8058 11.3684 84.045 11.1148C84.2842 10.8612 84.4052 10.5644 84.4052 10.2272V7.85844C84.4052 7.52127 84.2842 7.22446 84.045 6.97087C83.8058 6.71728 83.5003 6.59048 83.1372 6.59048H71.8092V11.4923H83.1372V11.4952ZM83.7712 22.9932C84.1084 22.9932 84.4052 22.8664 84.6588 22.6128C84.9124 22.3592 85.0392 22.0624 85.0392 21.7252V19.3593C85.0392 19.0222 84.9124 18.7254 84.6588 18.4718C84.4052 18.2182 84.1084 18.0914 83.7712 18.0914H71.8092V22.9961H83.7712V22.9932Z" fill="#123C73"/>
  <path d="M160.358 29.5865H140.198C138.648 29.5865 137.316 29.0304 136.204 27.918C135.089 26.8057 134.535 25.4743 134.535 23.924V1.06923e-05H142.397V21.7252C142.397 22.0624 142.523 22.3592 142.777 22.6128C143.031 22.8664 143.327 22.9932 143.665 22.9932H156.892C157.229 22.9932 157.526 22.8664 157.779 22.6128C158.033 22.3592 158.16 22.0624 158.16 21.7252V1.06923e-05H166.021V23.924C166.021 25.4743 165.465 26.8057 164.352 27.918C163.24 29.0304 161.909 29.5865 160.358 29.5865Z" fill="#123C73"/>
  <path d="M203.302 29.5865H195.44L179.674 11.2012V29.5865H171.813V1.06923e-05H179.674L195.44 18.3853V1.06923e-05H203.302V29.5865Z" fill="#123C73"/>
  <path d="M126.715 2.57914C124.997 0.861641 122.925 1.06923e-05 120.502 1.06923e-05H106.517C103.722 2.78951 100.932 5.579 98.1426 8.37138V29.5865H120.502C122.922 29.5865 124.994 28.7278 126.715 27.0074C128.432 25.2899 129.294 23.2035 129.294 20.7512V8.83245C129.294 6.38012 128.435 4.29664 126.715 2.57626V2.57914ZM121.433 18.5553C121.433 19.7945 121.003 20.8434 120.145 21.7022C119.286 22.5609 118.248 22.9932 117.038 22.9932H106.004V6.59336H117.038C118.248 6.59336 119.283 7.02274 120.145 7.88149C121.003 8.74024 121.433 9.79206 121.433 11.0312V18.5553Z" fill="#123C73"/>
</svg>
